<mxfile host="Electron" modified="2024-04-06T10:09:32.435Z" agent="Mozilla/5.0 (X11; Linux x86_64) AppleWebKit/537.36 (KHTML, like Gecko) draw.io/24.1.0 Chrome/120.0.6099.109 Electron/28.1.0 Safari/537.36" etag="gEOo6AzuZeVoaCCNGcqc" version="24.1.0" type="device">
  <diagram name="Página-1" id="TJ6FqSSZMqL8TIczoBO8">
    <mxGraphModel dx="810" dy="454" grid="1" gridSize="10" guides="1" tooltips="1" connect="1" arrows="1" fold="1" page="1" pageScale="1" pageWidth="827" pageHeight="1169" math="0" shadow="0">
      <root>
        <mxCell id="0" />
        <mxCell id="1" parent="0" />
        <mxCell id="o5z4QugkzE8cOkSysgq5-6" style="edgeStyle=orthogonalEdgeStyle;rounded=0;orthogonalLoop=1;jettySize=auto;html=1;exitX=0.5;exitY=1;exitDx=0;exitDy=0;entryX=0.5;entryY=0;entryDx=0;entryDy=0;" parent="1" source="o5z4QugkzE8cOkSysgq5-2" target="o5z4QugkzE8cOkSysgq5-3" edge="1">
          <mxGeometry relative="1" as="geometry" />
        </mxCell>
        <mxCell id="o5z4QugkzE8cOkSysgq5-2" value="Esperar por qubit en las dos posiciones de memoria" style="rounded=0;whiteSpace=wrap;html=1;fillColor=#dae8fc;strokeColor=none;" parent="1" vertex="1">
          <mxGeometry x="330" y="120" width="130" height="50" as="geometry" />
        </mxCell>
        <mxCell id="o5z4QugkzE8cOkSysgq5-7" style="edgeStyle=orthogonalEdgeStyle;rounded=0;orthogonalLoop=1;jettySize=auto;html=1;exitX=0.5;exitY=1;exitDx=0;exitDy=0;entryX=0.5;entryY=0;entryDx=0;entryDy=0;" parent="1" source="o5z4QugkzE8cOkSysgq5-3" target="o5z4QugkzE8cOkSysgq5-4" edge="1">
          <mxGeometry relative="1" as="geometry" />
        </mxCell>
        <mxCell id="o5z4QugkzE8cOkSysgq5-3" value="Medición" style="rounded=0;whiteSpace=wrap;html=1;fillColor=#dae8fc;strokeColor=none;" parent="1" vertex="1">
          <mxGeometry x="330" y="200" width="130" height="50" as="geometry" />
        </mxCell>
        <mxCell id="o5z4QugkzE8cOkSysgq5-5" style="edgeStyle=orthogonalEdgeStyle;rounded=0;orthogonalLoop=1;jettySize=auto;html=1;exitX=0.5;exitY=1;exitDx=0;exitDy=0;entryX=0.5;entryY=0;entryDx=0;entryDy=0;" parent="1" source="o5z4QugkzE8cOkSysgq5-4" target="o5z4QugkzE8cOkSysgq5-2" edge="1">
          <mxGeometry relative="1" as="geometry">
            <Array as="points">
              <mxPoint x="395" y="350" />
              <mxPoint x="290" y="350" />
              <mxPoint x="290" y="100" />
              <mxPoint x="395" y="100" />
            </Array>
          </mxGeometry>
        </mxCell>
        <mxCell id="o5z4QugkzE8cOkSysgq5-4" value="Envío de correcciones hacia adelante" style="rounded=0;whiteSpace=wrap;html=1;fillColor=#dae8fc;strokeColor=none;" parent="1" vertex="1">
          <mxGeometry x="330" y="280" width="130" height="50" as="geometry" />
        </mxCell>
      </root>
    </mxGraphModel>
  </diagram>
</mxfile>
